HIERARCHY
ROOT Hips
{
	OFFSET -0.001795 -0.223333 0.028219
	CHANNELS 6 Xposition Yposition Zposition Zrotation Yrotation Xrotation
	JOINT LeftUpLeg
	{
		OFFSET 0.069520 -0.091406 -0.006815
		CHANNELS 3 Zrotation Yrotation Xrotation
		JOINT LeftLeg
		{
			OFFSET 0.034277 -0.375199 -0.004496
			CHANNELS 3 Zrotation Yrotation Xrotation
			JOINT LeftFoot
			{
				OFFSET -0.013596 -0.397961 -0.043693
				CHANNELS 3 Zrotation Yrotation Xrotation
				JOINT LeftToe
				{
					OFFSET 0.026358 -0.055791 0.119288
					CHANNELS 3 Zrotation Yrotation Xrotation
					End Site
					{
						OFFSET 0.000000 0.000000 0.000000
					}
				}
			}
		}
	}
	JOINT RightUpLeg
	{
		OFFSET -0.067670 -0.090522 -0.004320
		CHANNELS 3 Zrotation Yrotation Xrotation
		JOINT RightLeg
		{
			OFFSET -0.038290 -0.382569 -0.008850
			CHANNELS 3 Zrotation Yrotation Xrotation
			JOINT RightFoot
			{
				OFFSET 0.015774 -0.398415 -0.042312
				CHANNELS 3 Zrotation Yrotation Xrotation
				JOINT RightToe
				{
					OFFSET -0.025372 -0.048144 0.123348
					CHANNELS 3 Zrotation Yrotation Xrotation
					End Site
					{
						OFFSET 0.000000 0.000000 0.000000
					}
				}
			}
		}
	}
	JOINT Spine
	{
		OFFSET -0.002533 0.108963 -0.026696
		CHANNELS 3 Zrotation Yrotation Xrotation
		JOINT Spine1
		{
			OFFSET 0.005487 0.135180 0.001092
			CHANNELS 3 Zrotation Yrotation Xrotation
			JOINT Spine2
			{
				OFFSET 0.001457 0.052922 0.025425
				CHANNELS 3 Zrotation Yrotation Xrotation
				JOINT Neck
				{
					OFFSET -0.002778 0.213870 -0.042857
					CHANNELS 3 Zrotation Yrotation Xrotation
					JOINT Head
					{
						OFFSET 0.005152 0.064970 0.051349
						CHANNELS 3 Zrotation Yrotation Xrotation
						End Site
						{
							OFFSET 0.000000 0.000000 0.000000
						}
					}
				}
				JOINT LeftShoulder
				{
					OFFSET 0.078845 0.121749 -0.034090
					CHANNELS 3 Zrotation Yrotation Xrotation
					JOINT LeftArm
					{
						OFFSET 0.090977 0.030469 -0.008868
						CHANNELS 3 Zrotation Yrotation Xrotation
						JOINT LeftForeArm
						{
							OFFSET 0.259612 -0.012772 -0.027456
							CHANNELS 3 Zrotation Yrotation Xrotation
							JOINT LeftHand
							{
								OFFSET 0.249234 0.008986 -0.001171
								CHANNELS 3 Zrotation Yrotation Xrotation
								End Site
								{
									OFFSET 0.000000 0.000000 0.000000
								}
							}
						}
					}
				}
				JOINT RightShoulder
				{
					OFFSET -0.081759 0.118833 -0.038615
					CHANNELS 3 Zrotation Yrotation Xrotation
					JOINT RightArm
					{
						OFFSET -0.096012 0.032551 -0.009143
						CHANNELS 3 Zrotation Yrotation Xrotation
						JOINT RightForeArm
						{
							OFFSET -0.253742 -0.013329 -0.021401
							CHANNELS 3 Zrotation Yrotation Xrotation
							JOINT RightHand
							{
								OFFSET -0.255298 0.007772 -0.005559
								CHANNELS 3 Zrotation Yrotation Xrotation
								End Site
								{
									OFFSET 0.000000 0.000000 0.000000
								}
							}
						}
					}
				}
			}
		}
	}
}
MOTION
Frames: 14
Frame Time: 0.050000
-0.085188 0.133524 -0.068319 -5.388728 5.514213 -85.434615 11.576278 1.582761 -4.072800 5.344936 -0.620603 -0.819233 -13.338254 1.103387 40.149388 0.000000 0.000000 0.000000 -1.832464 0.590764 -10.408500 -11.076871 3.588407 14.450302 7.309031 0.756690 33.052316 0.000000 0.000000 0.000000 -2.554539 -1.829683 -46.722105 0.306181 -0.653005 7.235947 3.861834 -0.273825 47.281737 5.009315 -2.167098 -17.260782 0.000000 0.000000 0.000000 10.263402 -2.299999 0.780363 -66.470676 2.777017 -17.138168 -59.692417 -56.882619 38.550418 0.000000 0.000000 0.000000 3.279720 -4.146060 -1.679232 60.243609 -3.312487 -13.226068 16.252574 54.948574 12.382686 0.000000 0.000000 0.000000
-0.085107 0.135234 -0.068984 -5.246015 4.769551 -84.474647 12.278959 1.699000 -4.372869 6.223540 -0.685888 -1.457819 -13.730514 1.097034 41.723304 0.000000 0.000000 0.000000 -1.876362 0.502576 -9.394665 -10.461816 3.285456 13.219050 5.537269 -1.157460 31.697418 0.000000 0.000000 0.000000 -3.042623 -1.960470 -46.979219 1.202347 -1.041339 6.405030 3.550600 0.061875 46.827832 5.816167 -2.961382 -16.574529 0.000000 0.000000 0.000000 10.118754 -1.608807 0.505891 -66.700637 4.401990 -17.774956 -54.985807 -51.772221 31.841828 0.000000 0.000000 0.000000 3.982777 -4.428986 -1.834905 60.430193 -5.426916 -14.343942 16.863101 51.037393 11.308737 0.000000 0.000000 0.000000
-0.084934 0.137511 -0.069563 -5.390775 4.126089 -83.965250 12.643890 1.761498 -4.188177 6.998654 -0.722472 -2.204112 -14.136118 0.744229 42.180027 0.000000 0.000000 0.000000 -1.983397 0.443299 -8.917516 -9.000609 2.961157 13.773399 4.724852 -2.424272 32.096777 0.000000 0.000000 0.000000 -3.515170 -2.143030 -47.001758 1.664258 -1.277730 6.521356 3.845333 0.061013 45.878175 6.555623 -3.627247 -16.435787 0.000000 0.000000 0.000000 9.832898 -1.670716 0.494201 -67.657087 5.100396 -18.054802 -48.273528 -47.980464 25.595149 0.000000 0.000000 0.000000 3.053609 -4.574795 -1.924864 62.069119 -7.265171 -15.510969 15.430886 49.217417 10.000141 0.000000 0.000000 0.000000
-0.084647 0.139957 -0.070285 -5.238292 3.391725 -83.370219 13.518356 1.906283 -4.191304 7.068215 -0.733958 -2.203895 -13.944960 0.860892 42.315371 0.000000 0.000000 0.000000 -1.507558 0.570676 -8.825496 -9.004673 2.965591 13.787752 4.582850 -2.348030 30.748728 0.000000 0.000000 0.000000 -3.665435 -2.017008 -47.131308 2.390915 -1.590394 5.832553 3.445852 0.217779 45.287330 6.947266 -4.075064 -15.883386 0.000000 0.000000 0.000000 9.190920 -1.428896 0.390305 -67.762803 5.829670 -18.235614 -44.718704 -44.290019 21.669146 0.000000 0.000000 0.000000 3.686882 -4.574822 -1.967761 63.055423 -8.332829 -16.316192 13.038088 46.814106 8.262291 0.000000 0.000000 0.000000
-0.084374 0.141997 -0.070931 -5.229924 3.341089 -83.040266 13.684161 1.932605 -4.398533 6.858318 -0.754696 -1.668544 -14.021203 0.700667 42.086532 0.000000 0.000000 0.000000 -1.526712 0.575643 -8.920532 -8.181611 2.805424 14.411966 3.760724 -2.632698 27.926954 0.000000 0.000000 0.000000 -3.656676 -2.018290 -47.550751 2.299961 -1.569758 6.217378 3.462380 0.356580 44.504860 7.319139 -4.415467 -15.380306 0.000000 0.000000 0.000000 8.256023 -1.358687 0.382415 -68.089430 6.141025 -18.477612 -41.696522 -41.796759 18.885093 0.000000 0.000000 0.000000 3.623087 -5.007069 -2.171294 64.156354 -9.731674 -17.214001 12.992631 44.844594 7.773328 0.000000 0.000000 0.000000
-0.084145 0.143287 -0.071371 -4.780739 3.388112 -82.560967 13.629530 1.914572 -4.743714 6.642323 -0.767731 -1.188627 -13.527810 1.113231 42.078843 0.000000 0.000000 0.000000 -1.585916 0.595167 -9.311375 -7.713758 2.684995 14.603581 3.938063 -2.355566 27.513488 0.000000 0.000000 0.000000 -3.359237 -1.751454 -47.872410 2.015614 -1.352479 5.450781 3.436230 0.971912 44.503146 7.253697 -4.201695 -15.492551 0.000000 0.000000 0.000000 8.456272 -0.734264 0.215729 -68.620394 6.491084 -18.980945 -39.507047 -38.669547 16.306441 0.000000 0.000000 0.000000 3.801799 -5.533987 -2.371335 65.282735 -10.459749 -17.699484 12.395462 43.741291 7.368229 0.000000 0.000000 0.000000
-0.083918 0.145045 -0.071588 -4.408591 3.529198 -82.167853 13.788710 1.925823 -4.539009 5.960950 -0.659283 -1.392605 -12.948546 1.503223 41.597391 0.000000 0.000000 0.000000 -1.955968 0.482575 -9.103604 -6.983419 2.475843 14.491474 3.308543 -2.046488 23.250351 0.000000 0.000000 0.000000 -2.870759 -1.430887 -48.875583 1.675306 -1.223927 6.176666 3.158195 1.377682 44.431689 6.975926 -3.993767 -14.959450 0.000000 0.000000 0.000000 7.466086 -0.477304 0.128549 -67.951667 6.525504 -19.020612 -37.770935 -36.620930 14.575333 0.000000 0.000000 0.000000 4.446475 -5.850318 -2.514073 65.614708 -9.971756 -17.490693 11.037556 41.299336 6.436180 0.000000 0.000000 0.000000
-0.083782 0.146617 -0.071754 -4.158549 3.811213 -81.827593 13.606767 1.867214 -4.468096 5.550658 -0.587390 -1.575433 -12.752134 1.794428 41.904725 0.000000 0.000000 0.000000 -2.289052 0.399243 -9.134786 -6.492086 2.313493 14.321759 2.576111 -2.862500 22.418036 0.000000 0.000000 0.000000 -2.598972 -1.288296 -49.184828 1.202326 -0.950702 5.825631 3.189093 1.907530 44.353366 6.712082 -3.594066 -15.238731 0.000000 0.000000 0.000000 8.012747 0.315744 -0.094553 -68.510792 7.462478 -19.914007 -36.589203 -35.078731 13.354612 0.000000 0.000000 0.000000 4.941241 -6.270743 -2.665896 65.979714 -10.445273 -17.662598 11.124753 39.240811 6.116915 0.000000 0.000000 0.000000
-0.083728 0.146951 -0.071965 -3.987889 4.231557 -81.803649 13.667288 1.854140 -4.243188 4.640315 -0.457243 -1.762854 -12.226817 2.340461 41.843278 0.000000 0.000000 0.000000 -2.967197 0.219619 -9.131536 -5.997079 2.182824 14.438109 1.340145 -4.459007 21.738606 0.000000 0.000000 0.000000 -2.438291 -1.278433 -49.316686 0.788669 -0.741499 5.886517 3.286095 2.586185 44.360298 6.713729 -3.395627 -15.379728 0.000000 0.000000 0.000000 8.397410 0.716911 -0.179492 -68.704553 7.957060 -20.551426 -36.391346 -34.486534 12.891669 0.000000 0.000000 0.000000 4.969544 -6.442131 -2.663295 66.900650 -11.061070 -18.042085 11.021779 38.859716 6.095687 0.000000 0.000000 0.000000
-0.083759 0.147983 -0.072465 -3.890190 4.609917 -81.568273 13.359682 1.776837 -4.075427 3.997886 -0.331815 -2.443502 -11.643554 3.237417 42.814600 0.000000 0.000000 0.000000 -3.331057 0.109240 -8.935849 -5.728346 2.060081 13.917731 0.671535 -5.651019 22.862306 0.000000 0.000000 0.000000 -2.234851 -1.230205 -49.406924 0.321766 -0.479730 5.503451 3.345121 3.104864 43.952607 7.121419 -3.467182 -15.848812 0.000000 0.000000 0.000000 9.490312 0.694200 -0.053555 -69.138597 8.692758 -21.330284 -35.398794 -34.097497 12.216412 0.000000 0.000000 0.000000 4.611604 -6.842118 -2.792503 67.103284 -12.373307 -18.490973 12.654074 38.608524 6.603319 0.000000 0.000000 0.000000
-0.083775 0.146552 -0.073056 -3.786565 4.843053 -81.355966 13.408341 1.761368 -3.816990 3.356103 -0.196205 -3.573989 -11.251594 3.726277 43.135302 0.000000 0.000000 0.000000 -3.732472 -0.023384 -8.537061 -5.036337 1.801985 12.946983 -1.127871 -8.144715 22.721107 0.000000 0.000000 0.000000 -2.026048 -1.157906 -49.797077 0.155214 -0.427372 6.031103 3.286541 3.650757 43.444659 7.188272 -3.408462 -15.753240 0.000000 0.000000 0.000000 9.519334 0.572247 0.032384 -68.685712 8.953780 -21.473000 -34.194404 -33.641976 11.489204 0.000000 0.000000 0.000000 4.319263 -7.163431 -2.902709 67.266341 -13.726061 -19.033760 14.513742 39.525173 7.460820 0.000000 0.000000 0.000000
-0.083810 0.145280 -0.073719 -3.588317 5.012966 -81.048163 13.208697 1.703826 -3.505936 2.666856 -0.067444 -4.900309 -10.547766 4.522216 43.689082 0.000000 0.000000 0.000000 -4.397825 -0.221952 -7.963693 -3.964326 1.401577 11.149133 -1.777194 -9.462108 24.867360 0.000000 0.000000 0.000000 -1.740564 -0.975530 -50.016736 -0.171380 -0.250693 5.904510 3.322934 3.825333 43.352454 7.211879 -3.398457 -15.567991 0.000000 0.000000 0.000000 9.608696 0.247329 0.172538 -68.659706 9.286314 -21.768234 -31.798877 -32.960765 10.402162 0.000000 0.000000 0.000000 4.124302 -7.404808 -2.997739 66.626447 -14.907457 -19.357578 16.287315 39.956608 8.170489 0.000000 0.000000 0.000000
-0.083790 0.143278 -0.074295 -3.495642 5.007047 -80.988579 13.225575 1.687271 -2.833133 2.342136 0.017599 -6.448701 -10.335033 4.828728 44.136997 0.000000 0.000000 0.000000 -4.688923 -0.334472 -7.281178 -3.152897 1.099339 9.440573 -1.510444 -9.479726 26.773947 0.000000 0.000000 0.000000 -1.747900 -0.956862 -50.093402 -0.027476 -0.330041 5.969100 3.104995 4.077648 43.073669 7.427967 -3.591988 -15.172110 0.000000 0.000000 0.000000 9.525275 -0.048362 0.280377 -67.481100 10.104473 -21.811494 -31.078902 -32.604082 9.889731 0.000000 0.000000 0.000000 3.713083 -7.536930 -3.051350 65.777286 -16.238858 -19.693234 19.038132 40.249749 9.159608 0.000000 0.000000 0.000000
-0.083793 0.140700 -0.074749 -3.403429 5.080248 -80.814901 12.795736 1.613329 -2.509425 2.227392 0.064476 -7.566094 -9.652906 5.509736 44.528779 0.000000 0.000000 0.000000 -4.722406 -0.382871 -6.580996 -2.583947 0.829749 7.121332 -1.934346 -10.546689 29.815074 0.000000 0.000000 0.000000 -1.737913 -0.945267 -49.845129 -0.098229 -0.253230 5.302818 2.979458 3.854815 43.016885 6.957593 -3.155749 -15.727431 0.000000 0.000000 0.000000 10.932179 0.654434 0.159523 -67.251327 10.914981 -22.027170 -31.201323 -31.369006 9.459900 0.000000 0.000000 0.000000 2.635573 -7.839774 -3.209463 65.116581 -17.652610 -20.092451 22.413226 39.334635 9.985282 0.000000 0.000000 0.000000
